<?xml version="1.0" encoding="utf-8"?>
<!DOCTYPE svg PUBLIC "-//W3C//DTD SVG 20010904//EN" "http://www.w3.org/TR/2001/REC-SVG-20010904/DTD/svg10.dtd">
<svg version="1.0" width="1440pt" height="810pt" viewBox="0 0 1440 810" preserveAspectRatio="xMidYMid meet" xmlns="http://www.w3.org/2000/svg">
  <g transform="translate(0,810)scale(.075,.075)">
    <path id="path1" d="M 2 -5400 l -2 5400 9600 0 9600 0 -2 -5400 -3 -5400 -9595 0 -9595 0 -3 5400 z m 12948 -4961 c 228 43 282 66 342 146 22 29 60 62 89 79 51 29 51 30 31 46 -12 10 -48 20 -89 23 -85 9 -188 47 -337 126 -130 69 -164 75 -194 35 l -19 -27 -49 17 c -27 9 -96 25 -153 36 -57 11 -127 28 -155 38 -28 11 -58 17 -66 14 -15 -5 -30 -21 -30 -34 0 -18 49 -49 117 -74 40 -15 76 -31 79 -35 2 -5 -1 -17 -7 -27 -29 -47 22 -76 171 -100 52 -8 139 -28 193 -44 83 -25 100 -34 112 -58 8 -16 24 -31 35 -35 32 -10 24 -23 -22 -36 -46 -12 -115 -35 -160 -51 -30 -11 -35 -27 -16 -47 13 -13 18 -12 128 8 z m -931 1219 c -5 2 -5 11 0 20 5 9 12 37 16 61 5 32 18 56 46 85 22 22 39 46 39 54 0 9 7 13 20 9 11 -3 18 -2 16 2 -5 8 51 45 69 46 5 1 9 7 7 15 -2 8 0 12 3 8 4 -4 17 -2 29 4 11 7 23 13 26 13 3 0 32 18 65 40 33 21 63 39 66 40 3 0 21 7 40 17 44 21 91 41 105 43 5 2 30 12 54 24 24 11 58 21 76 21 18 0 52 8 76 19 24 10 59 22 78 26 52 11 170 68 170 82 0 6 13 26 29 43 16 18 37 52 47 76 10 24 22 44 26 44 4 0 8 7 8 15 0 8 4 15 8 15 5 0 14 16 22 35 7 19 20 37 27 39 8 3 13 11 12 18 -2 7 2 29 8 49 6 20 9 47 6 60 -2 13 2 33 10 43 11 15 12 29 5 60 -5 23 -13 45 -19 50 -5 6 -9 17 -9 26 0 23 -87 103 -101 94 -8 -4 -9 -3 -5 5 10 15 -45 6 -85 -15 -16 -8 -33 -13 -37 -10 -7 4 -64 -24 -198 -95 -27 -15 -65 -29 -85 -33 -27 -5 -43 -17 -67 -50 -17 -24 -87 -94 -155 -155 -68 -61 -134 -126 -148 -144 -41 -56 -69 -98 -69 -105 0 -4 -31 -45 -69 -90 -38 -44 -72 -94 -76 -110 -3 -16 -15 -39 -26 -51 -11 -12 -18 -25 -15 -29 3 -5 -2 -20 -12 -33 -9 -13 -17 -29 -18 -35 -1 -6 -14 -29 -28 -52 -14 -23 -26 -48 -26 -55 0 -7 -7 -22 -15 -33 -8 -10 -15 -31 -15 -46 0 -16 -5 -28 -11 -28 -5 0 -8 -4 -4 -9 3 -5 1 -12 -5 -16 -17 -11 -11 -31 23 -81 18 -27 37 -58 41 -69 8 -18 9 -18 21 10 7 17 9 31 4 33 z m 2587 497 c 11 27 -5 65 -26 65 -15 0 -20 -7 -20 -28 0 -42 34 -69 46 -37 z m 117 105 c 13 11 28 32 31 46 6 23 8 25 19 10 11 -15 19 -13 87 13 100 39 108 51 112 181 3 101 2 105 -19 108 -26 4 -38 -16 -47 -80 -4 -26 -15 -57 -24 -68 l -18 -22 -14 27 c -9 17 -21 25 -34 23 -17 -2 -25 -18 -40 -76 l -19 -72 -18 30 c -39 64 -117 42 -104 -29 8 -41 42 -111 54 -111 5 0 20 9 34 20 z m -1787 5806 c 62 18 156 73 207 122 194 186 207 508 28 704 -60 66 -125 110 -207 140 -89 32 -264 31 -354 -3 -235 -89 -367 -309 -332 -551 16 -108 55 -189 130 -270 82 -87 195 -145 317 -161 47 -6 155 4 211 19 z m -6356 25 c 168 26 306 141 362 298 28 79 27 206 -1 285 -96 269 -383 390 -638 270 -85 -41 -176 -132 -221 -222 -36 -75 -37 -78 -37 -192 0 -110 2 -119 32 -181 72 -145 188 -231 348 -258 71 -12 82 -12 155 0 z " />
  </g>
</svg>